<!DOCTYPE svg PUBLIC "-//W3C//DTD SVG 1.1//EN" "http://www.w3.org/Graphics/SVG/1.1/DTD/svg11.dtd">
<!-- Uploaded to: SVG Repo, www.svgrepo.com, Transformed by: SVG Repo Mixer Tools -->
<svg fill="#000000" width="800px" height="800px" viewBox="-2.4 -2.4 28.80 28.80" id="facebook" data-name="Flat Line" xmlns="http://www.w3.org/2000/svg" class="icon flat-line">
<g id="SVGRepo_bgCarrier" stroke-width="0" transform="translate(0.6000000000000014,0.6000000000000014), scale(0.95)">
<rect x="-2.4" y="-2.4" width="28.80" height="28.80" rx="14.4" fill="#000000" strokewidth="0"/>
</g>
<g id="SVGRepo_tracerCarrier" stroke-linecap="round" stroke-linejoin="round" stroke="#ff0000" stroke-width="0.096"/>
<g id="SVGRepo_iconCarrier">
<path id="secondary" d="M14,7h4V3H14A5,5,0,0,0,9,8v3H6v4H9v6h4V15h3l1-4H13V8A1,1,0,0,1,14,7Z" style="fill: #2ca9bc; stroke-width:0.24000000000000005;"/>
<path id="primary" d="M14,7h4V3H14A5,5,0,0,0,9,8v3H6v4H9v6h4V15h3l1-4H13V8A1,1,0,0,1,14,7Z" style="fill: none; stroke: #2ca9bc; stroke-linecap: round; stroke-linejoin: round; stroke-width:0.24000000000000005;"/>
</g>
</svg>